<svg width="23" height="24" viewBox="0 0 23 24" fill="none" xmlns="http://www.w3.org/2000/svg">
<path fill-rule="evenodd" clip-rule="evenodd" d="M4.89211 6.23107C5.19237 6.16286 5.491 6.35126 5.55913 6.65188L7.10151 13.4577C7.12079 13.5428 7.11989 13.6312 7.09887 13.7158C7.09364 13.7369 7.08803 13.7545 7.08361 13.7673L6.69932 15.1459H17.2668C17.5747 15.1459 17.8243 15.3958 17.8243 15.7041C17.8243 16.0123 17.5747 16.2622 17.2668 16.2622H6.65447C5.9729 16.2622 5.4566 15.6347 5.59474 14.9609C5.59734 14.9481 5.60039 14.9355 5.60387 14.923L5.98247 13.5648L4.47179 6.89887C4.40366 6.59826 4.59185 6.29928 4.89211 6.23107ZM7.0729 13.7961L7.07381 13.7937C7.07308 13.7956 7.0729 13.7961 7.0729 13.7961Z" fill="#565C70"/>
<path fill-rule="evenodd" clip-rule="evenodd" d="M2 4.55814C2 4.24989 2.2496 4 2.55749 4H4.76068C5.3211 4 5.80824 4.39244 5.92459 4.94442C5.94065 5.0206 5.94061 5.09931 5.92447 5.17548L5.70377 6.21721H19.1193C19.4272 6.21721 19.6768 6.46709 19.6768 6.77535C19.6768 7.0836 19.4272 7.33349 19.1193 7.33349H5.01564C4.84748 7.33349 4.68831 7.2575 4.58246 7.12669C4.47661 6.99588 4.43539 6.82422 4.47028 6.65954L4.79542 5.12484C4.78502 5.11938 4.77319 5.11628 4.76068 5.11628H2.55749C2.2496 5.11628 2 4.86639 2 4.55814Z" fill="#565C70"/>
<path fill-rule="evenodd" clip-rule="evenodd" d="M19.588 5.04928C19.8852 5.12982 20.0609 5.43632 19.9805 5.73387L18.2648 12.0796C18.1381 12.6007 17.6798 12.9734 17.144 12.9889L6.61804 14.1359C6.31195 14.1693 6.03682 13.9479 6.0035 13.6415C5.97019 13.335 6.19131 13.0596 6.4974 13.0262L17.0488 11.8764C17.0688 11.8742 17.089 11.8731 17.1091 11.8731C17.1433 11.8731 17.1735 11.85 17.1817 11.8148C17.1832 11.8085 17.1848 11.8022 17.1864 11.7959L18.9043 5.44221C18.9847 5.14466 19.2908 4.96875 19.588 5.04928Z" fill="#565C70"/>
<path fill-rule="evenodd" clip-rule="evenodd" d="M5.59155 18.3115C5.59155 17.3802 6.34542 16.6238 7.27665 16.6238C8.20687 16.6238 8.96026 17.3807 8.96026 18.3115C8.96026 19.2429 8.20711 20 7.27665 20C6.34518 20 5.59155 19.2434 5.59155 18.3115ZM7.27665 17.7401C6.96208 17.7401 6.70652 17.9958 6.70652 18.3115C6.70652 18.6283 6.96232 18.8837 7.27665 18.8837C7.58902 18.8837 7.84529 18.6287 7.84529 18.3115C7.84529 17.9953 7.58926 17.7401 7.27665 17.7401Z" fill="#565C70"/>
<path fill-rule="evenodd" clip-rule="evenodd" d="M14.4556 18.3115C14.4556 17.3804 15.2092 16.6238 16.1399 16.6238C17.0706 16.6238 17.8243 17.3804 17.8243 18.3115C17.8243 19.2432 17.0709 20 16.1399 20C15.2089 20 14.4556 19.2432 14.4556 18.3115ZM16.1399 17.7401C15.8263 17.7401 15.5705 17.9956 15.5705 18.3115C15.5705 18.6285 15.8266 18.8837 16.1399 18.8837C16.4533 18.8837 16.7093 18.6285 16.7093 18.3115C16.7093 17.9956 16.4535 17.7401 16.1399 17.7401Z" fill="#565C70"/>
</svg>
