<svg width="75" height="28" viewBox="0 0 75 28" fill="none" xmlns="http://www.w3.org/2000/svg">
<path d="M57.9992 7.49127L64.4383 7.37785C64.1815 8.2285 61.4177 17.4684 61.4177 18.4605C61.4177 19.0562 61.5887 19.2825 61.9019 19.2825C62.8422 19.2825 65.3586 14.3179 65.7283 13.7228L65.321 16.8451C64.4377 18.858 62.7282 21.0967 60.2776 21.0967C58.5687 21.0967 57.3146 20.1046 57.3146 18.2056C57.3146 15.6261 59.4802 10.8928 59.4802 9.47501C59.4802 8.79504 59.1382 8.5682 57.7136 8.51094L57.9992 7.49127ZM63.2412 1.25482C64.3813 1.25482 65.5208 2.19026 65.5208 3.43733C65.5208 4.6844 64.3813 5.61984 63.2412 5.61984C62.1017 5.61984 60.9622 4.6844 60.9622 3.43733C60.9622 2.19081 62.1017 1.25482 63.2412 1.25482Z" fill="black"/>
<path d="M71.2133 7.43473H74.2903L74.0059 8.62509H70.8713L68.6775 16.5898C68.4778 17.2698 68.1933 18.2625 68.1933 18.9711C68.1933 19.368 68.3638 19.7364 68.8198 19.7364C70.2443 19.7364 71.3555 17.3551 71.868 16.3635L72.8083 16.8739C71.982 18.8863 70.5005 21.0974 68.0793 21.0974C65.9995 21.0974 64.7173 19.3967 64.7173 17.441C64.7173 16.4775 64.9165 15.5415 65.1727 14.6066L66.8252 8.62564H64.4893L64.7743 7.43528H67.1673L68.2503 3.52394L72.324 3.41052L71.2133 7.43473Z" fill="black"/>
<path d="M0 0.777771H6.0522C12.3346 0.777771 16.5423 5.14554 16.5423 10.9063C16.5423 16.5866 12.2195 20.9808 6.02342 20.9808H0V0.777771ZM4.23643 17.5507H4.92821C10.1447 17.5507 12.1614 14.871 12.1614 10.8788C12.1614 6.48456 9.74075 4.20735 4.92821 4.20735H4.23643V17.5507Z" fill="black"/>
<path d="M21.3839 9.19108H21.4414C22.2483 8.03926 23.4586 7.39563 24.9573 7.39563C25.534 7.39563 26.1101 7.52997 26.6286 7.71772L26.1388 11.2007C25.6485 10.8792 25.0724 10.7184 24.467 10.7184C21.6716 10.7184 21.3833 13.0226 21.3833 15.0586V20.9801H17.3489V7.82453H21.3833V9.19108H21.3839Z" fill="black"/>
<path d="M41.1972 14.4158C41.1972 18.4885 38.2005 21.4088 33.762 21.4088C29.3236 21.4088 26.3268 18.4885 26.3268 14.4158C26.3268 10.3162 29.3529 7.3959 33.762 7.3959C38.1711 7.3959 41.1972 10.3162 41.1972 14.4158ZM30.4188 14.4158C30.4188 16.1843 31.6873 18.0866 33.762 18.0866C35.8374 18.0866 37.1047 16.1843 37.1047 14.4158C37.1047 12.594 35.8368 10.7187 33.762 10.7187C31.6867 10.7181 30.4188 12.5934 30.4188 14.4158Z" fill="black"/>
<path d="M46.0018 9.03031C46.9238 8.01228 48.4225 7.39563 49.9212 7.39563C53.9268 7.39563 56.3768 10.8792 56.3768 14.3357C56.3768 17.9261 54.0131 21.409 49.8348 21.409C48.3937 21.409 46.8663 20.8194 46.0594 19.7479H46.0018V28.0001H41.9674V7.82453H46.0018V9.03031ZM52.2843 14.3891C52.2843 12.6207 51.0164 10.7184 48.9416 10.7184C46.8668 10.7184 45.5984 12.6207 45.5984 14.3891C45.5984 16.1576 46.8663 18.0868 48.9416 18.0868C51.0164 18.0868 52.2843 16.1576 52.2843 14.3891Z" fill="black"/>
</svg>
